<?xml version="1.0" encoding="UTF-8"?>
<svg id="Layer_2" data-name="Layer 2" xmlns="http://www.w3.org/2000/svg" viewBox="0 0 1799 1637">
  <defs>
    <style>
      .cls-1 {
        fill: #fff;
      }

      .cls-2 {
        fill: none;
        isolation: isolate;
      }
    </style>
  </defs>
  <g id="Layer_2-2" data-name="Layer 2">
    <rect width="1799" height="1637"/>
    <g id="Layer_2-2" data-name="Layer 2-2">
      <g>
        <g>
          <g class="cls-2">
            <g class="cls-2">
              <path class="cls-1" d="m895.41,815.97c-3.42-.99-6.17-2.28-8.24-3.87l3.64-8.08c1.99,1.46,4.35,2.63,7.08,3.51,2.73.88,5.47,1.32,8.21,1.32,3.04,0,5.29-.45,6.75-1.36,1.46-.9,2.18-2.11,2.18-3.61,0-1.1-.43-2.02-1.29-2.75-.86-.73-1.96-1.31-3.31-1.75-1.35-.44-3.17-.93-5.46-1.46-3.53-.84-6.42-1.68-8.67-2.52-2.25-.84-4.18-2.18-5.79-4.04-1.61-1.85-2.42-4.32-2.42-7.41,0-2.69.73-5.13,2.18-7.31,1.46-2.18,3.65-3.92,6.59-5.2,2.93-1.28,6.52-1.92,10.76-1.92,2.96,0,5.85.35,8.67,1.06,2.82.71,5.29,1.72,7.41,3.04l-3.31,8.14c-4.28-2.43-8.56-3.64-12.84-3.64-3,0-5.22.49-6.65,1.46-1.43.97-2.15,2.25-2.15,3.84s.83,2.77,2.48,3.54c1.65.77,4.18,1.53,7.58,2.28,3.53.84,6.42,1.68,8.67,2.52,2.25.84,4.18,2.16,5.79,3.97,1.61,1.81,2.42,4.26,2.42,7.35,0,2.65-.74,5.06-2.22,7.25-1.48,2.18-3.7,3.92-6.65,5.2-2.96,1.28-6.55,1.92-10.79,1.92-3.66,0-7.2-.5-10.62-1.49Z"/>
            </g>
            <g class="cls-2">
              <path class="cls-1" d="m938.5,815.71c-2.63-1.17-4.78-2.83-6.45-5l5.96-7.15c2.52,3.4,5.38,5.1,8.61,5.1,4.37,0,6.55-2.56,6.55-7.68v-22.04h-16.28v-8.6h26.94v30.05c0,5.69-1.41,9.96-4.24,12.81-2.82,2.85-6.97,4.27-12.44,4.27-3.13,0-6.01-.59-8.64-1.75Z"/>
            </g>
            <g class="cls-2">
              <path class="cls-1" d="m989.3,779.07h-14.83v-8.74h40.38v8.74h-14.83v37.6h-10.72v-37.6Z"/>
            </g>
            <g class="cls-2">
              <path class="cls-1" d="m1035.4,814.38c-3.82-2.05-6.82-4.9-9-8.54s-3.28-7.75-3.28-12.34,1.09-8.7,3.28-12.34,5.18-6.49,9-8.54c3.82-2.05,8.11-3.08,12.87-3.08,4.01,0,7.65.71,10.89,2.12,3.24,1.41,5.97,3.44,8.17,6.09l-6.88,6.35c-3.13-3.62-7.02-5.43-11.65-5.43-2.87,0-5.43.63-7.68,1.89-2.25,1.26-4,3.01-5.26,5.26-1.26,2.25-1.89,4.81-1.89,7.68s.63,5.43,1.89,7.68c1.26,2.25,3.01,4,5.26,5.26,2.25,1.26,4.81,1.89,7.68,1.89,4.63,0,8.52-1.83,11.65-5.49l6.88,6.35c-2.21,2.69-4.94,4.74-8.21,6.16s-6.91,2.12-10.92,2.12c-4.72,0-8.99-1.03-12.81-3.08Z"/>
              <path class="cls-1" d="m1086.9,814.38c-3.82-2.05-6.82-4.9-9-8.54s-3.28-7.75-3.28-12.34,1.09-8.7,3.28-12.34,5.18-6.49,9-8.54c3.82-2.05,8.11-3.08,12.87-3.08,4.01,0,7.65.71,10.89,2.12,3.24,1.41,5.97,3.44,8.17,6.09l-6.88,6.35c-3.13-3.62-7.02-5.43-11.65-5.43-2.87,0-5.43.63-7.68,1.89-2.25,1.26-4,3.01-5.26,5.26-1.26,2.25-1.89,4.81-1.89,7.68s.63,5.43,1.89,7.68c1.26,2.25,3.01,4,5.26,5.26,2.25,1.26,4.81,1.89,7.68,1.89,4.63,0,8.52-1.83,11.65-5.49l6.88,6.35c-2.21,2.69-4.94,4.74-8.21,6.16s-6.91,2.12-10.92,2.12c-4.72,0-8.99-1.03-12.81-3.08Z"/>
            </g>
            <g class="cls-2">
              <path class="cls-1" d="m1162.99,792.77h9.8v18.8c-2.51,1.9-5.43,3.35-8.74,4.37s-6.64,1.52-9.99,1.52c-4.81,0-9.13-1.03-12.97-3.08-3.84-2.05-6.85-4.9-9.04-8.54-2.18-3.64-3.28-7.75-3.28-12.34s1.09-8.7,3.28-12.34c2.18-3.64,5.22-6.49,9.1-8.54,3.88-2.05,8.25-3.08,13.11-3.08,4.06,0,7.74.68,11.05,2.05,3.31,1.37,6.09,3.35,8.34,5.96l-6.88,6.35c-3.31-3.49-7.3-5.23-11.98-5.23-2.96,0-5.58.62-7.88,1.85-2.29,1.24-4.08,2.98-5.36,5.23-1.28,2.25-1.92,4.83-1.92,7.74s.64,5.43,1.92,7.68c1.28,2.25,3.06,4,5.33,5.26s4.87,1.89,7.78,1.89c3.09,0,5.87-.66,8.34-1.99v-13.57Z"/>
            </g>
          </g>
          <g class="cls-2">
            <g class="cls-2">
              <path class="cls-1" d="m887.83,846.96c-.82-.25-1.47-.58-1.94-.99l.73-1.64c.47.37,1.04.67,1.72.9.68.23,1.36.35,2.04.35.85,0,1.48-.14,1.9-.41.42-.27.63-.63.63-1.07,0-.33-.12-.59-.35-.81s-.53-.38-.89-.5-.85-.25-1.46-.41c-.87-.21-1.57-.41-2.11-.62s-1-.53-1.38-.97c-.39-.44-.58-1.03-.58-1.78,0-.63.17-1.2.51-1.72.34-.51.86-.92,1.55-1.23s1.53-.46,2.53-.46c.69,0,1.38.09,2.05.26.67.17,1.25.42,1.74.75l-.67,1.64c-.5-.29-1.02-.52-1.56-.67-.54-.15-1.07-.23-1.58-.23-.84,0-1.46.14-1.86.42-.41.28-.61.66-.61,1.12,0,.33.12.59.35.8.23.21.53.37.89.49.36.12.85.26,1.46.41.85.2,1.54.4,2.08.61.54.21,1.01.53,1.39.97.39.43.58,1.02.58,1.76,0,.63-.17,1.2-.51,1.71-.34.51-.86.92-1.55,1.22-.69.3-1.54.46-2.54.46-.88,0-1.73-.12-2.55-.38Z"/>
            </g>
            <g class="cls-2">
              <path class="cls-1" d="m905.62,845.4v1.77h-8.54v-11.39h8.31v1.77h-6.2v2.96h5.5v1.74h-5.5v3.14h6.43Z"/>
            </g>
            <g class="cls-2">
              <path class="cls-1" d="m910.09,846.58c-.93-.5-1.65-1.2-2.18-2.09s-.79-1.89-.79-3.01.27-2.12.8-3.01c.53-.89,1.26-1.59,2.19-2.09.93-.5,1.97-.76,3.12-.76.93,0,1.79.16,2.55.49.77.33,1.42.8,1.95,1.42l-1.37,1.29c-.82-.89-1.84-1.33-3.04-1.33-.78,0-1.48.17-2.1.51s-1.1.82-1.45,1.42c-.35.61-.52,1.3-.52,2.07s.17,1.46.52,2.07c.35.61.83,1.08,1.45,1.42s1.32.51,2.1.51c1.2,0,2.22-.45,3.04-1.35l1.37,1.3c-.53.62-1.19,1.09-1.96,1.42-.78.33-1.63.49-2.56.49-1.15,0-2.19-.25-3.12-.76Z"/>
              <path class="cls-1" d="m921.51,846.58c-.93-.5-1.65-1.2-2.18-2.09s-.79-1.89-.79-3.01.27-2.12.8-3.01c.53-.89,1.26-1.59,2.19-2.09.93-.5,1.97-.76,3.12-.76.93,0,1.79.16,2.55.49.77.33,1.42.8,1.95,1.42l-1.37,1.29c-.82-.89-1.84-1.33-3.04-1.33-.78,0-1.48.17-2.1.51s-1.1.82-1.45,1.42c-.35.61-.52,1.3-.52,2.07s.17,1.46.52,2.07c.35.61.83,1.08,1.45,1.42s1.32.51,2.1.51c1.2,0,2.22-.45,3.04-1.35l1.37,1.3c-.53.62-1.19,1.09-1.96,1.42-.78.33-1.63.49-2.56.49-1.15,0-2.19-.25-3.12-.76Zm.85,3.96l.37-.96c.34.17.71.26,1.11.26.58,0,.86-.2.86-.59,0-.16-.07-.29-.21-.39-.14-.1-.36-.15-.65-.15h-.5l.44-1.66h1.11l-.23.91c.47.05.82.2,1.06.45s.36.55.36.92c0,.47-.2.84-.6,1.12s-.94.42-1.61.42c-.59,0-1.08-.11-1.5-.34Z"/>
            </g>
            <g class="cls-2">
              <path class="cls-1" d="m938.49,844.54h-5.7l-1.12,2.64h-2.18l5.13-11.39h2.08l5.14,11.39h-2.21l-1.14-2.64Zm-2.37-9.84c-.2-.11-.45-.27-.74-.49-.17-.14-.32-.25-.43-.32-.11-.07-.23-.11-.33-.11-.23,0-.42.09-.56.26-.15.17-.22.41-.24.72h-1.09c.01-.66.18-1.19.5-1.59.32-.4.74-.59,1.26-.59.27,0,.51.05.71.16.2.11.45.27.74.49.17.14.32.25.43.32.11.07.23.11.33.11.23,0,.42-.08.56-.24.15-.16.22-.39.24-.68h1.09c-.02.64-.19,1.16-.5,1.55-.31.39-.73.58-1.25.58-.27,0-.51-.05-.71-.16Zm1.67,8.18l-2.15-4.98-2.13,4.98h4.28Z"/>
            </g>
            <g class="cls-2">
              <path class="cls-1" d="m945.31,846.58c-.93-.5-1.67-1.2-2.2-2.1-.53-.89-.8-1.9-.8-3s.27-2.11.8-3c.53-.9,1.26-1.59,2.2-2.1.93-.5,1.98-.76,3.14-.76s2.21.25,3.14.76c.93.5,1.67,1.2,2.2,2.09.53.89.8,1.89.8,3.01s-.27,2.12-.8,3.01-1.26,1.59-2.2,2.09c-.93.5-1.98.76-3.14.76s-2.21-.25-3.14-.76Zm5.19-1.61c.61-.34,1.08-.82,1.43-1.43.35-.61.52-1.3.52-2.06s-.17-1.45-.52-2.06c-.35-.61-.83-1.09-1.43-1.43s-1.29-.51-2.05-.51-1.44.17-2.05.51-1.08.82-1.43,1.43c-.35.61-.52,1.3-.52,2.06s.17,1.45.52,2.06c.35.61.82,1.09,1.43,1.43s1.29.51,2.05.51,1.44-.17,2.05-.51Z"/>
              <path class="cls-1" d="m961.32,835.78h4.98c1.21,0,2.29.24,3.24.71.94.47,1.68,1.14,2.2,2,.52.86.78,1.86.78,2.99s-.26,2.12-.78,2.99c-.52.86-1.25,1.53-2.2,2-.94.47-2.02.71-3.24.71h-4.98v-11.39Zm4.88,9.6c.84,0,1.57-.16,2.21-.48.63-.32,1.12-.78,1.46-1.37s.51-1.28.51-2.06-.17-1.47-.51-2.06c-.34-.59-.83-1.05-1.46-1.37-.63-.32-1.37-.48-2.21-.48h-2.77v7.81h2.77Z"/>
              <path class="cls-1" d="m983.3,845.4v1.77h-8.54v-11.39h8.31v1.77h-6.2v2.96h5.5v1.74h-5.5v3.14h6.43Z"/>
              <path class="cls-1" d="m989.92,846.91c-.61-.29-1.11-.69-1.5-1.21l1.2-1.45c.63.87,1.38,1.3,2.26,1.3,1.18,0,1.77-.7,1.77-2.1v-5.89h-4.05v-1.77h6.17v7.55c0,1.33-.33,2.33-.98,3-.65.67-1.61,1-2.86,1-.73,0-1.4-.14-2.01-.43Z"/>
              <path class="cls-1" d="m1000.91,846.58c-.93-.5-1.67-1.2-2.2-2.1-.53-.89-.8-1.9-.8-3s.27-2.11.8-3c.53-.9,1.26-1.59,2.2-2.1.93-.5,1.98-.76,3.14-.76s2.21.25,3.14.76c.93.5,1.67,1.2,2.2,2.09.53.89.8,1.89.8,3.01s-.27,2.12-.8,3.01c-.53.89-1.26,1.59-2.2,2.09-.93.5-1.98.76-3.14.76s-2.21-.25-3.14-.76Zm5.19-1.61c.61-.34,1.08-.82,1.43-1.43.35-.61.52-1.3.52-2.06s-.17-1.45-.52-2.06c-.35-.61-.82-1.09-1.43-1.43-.61-.34-1.29-.51-2.05-.51s-1.44.17-2.05.51c-.61.34-1.08.82-1.43,1.43-.35.61-.52,1.3-.52,2.06s.17,1.45.52,2.06c.35.61.82,1.09,1.43,1.43.61.34,1.29.51,2.05.51s1.44-.17,2.05-.51Z"/>
              <path class="cls-1" d="m1020.21,841.35h2v4.54c-.59.47-1.27.82-2.05,1.07-.78.25-1.58.38-2.41.38-1.16,0-2.21-.25-3.14-.76-.93-.5-1.67-1.2-2.2-2.09-.53-.89-.8-1.89-.8-3.01s.27-2.12.8-3.01c.53-.89,1.27-1.59,2.21-2.09.94-.5,1.99-.76,3.17-.76.95,0,1.82.16,2.6.47s1.44.78,1.97,1.38l-1.33,1.3c-.87-.87-1.92-1.3-3.14-1.3-.8,0-1.52.17-2.14.5-.62.34-1.11.81-1.46,1.42s-.53,1.3-.53,2.08.18,1.44.53,2.05.84,1.08,1.46,1.43,1.33.52,2.12.52c.89,0,1.67-.2,2.34-.59v-3.55Z"/>
              <path class="cls-1" d="m1027.17,846.58c-.93-.5-1.67-1.2-2.2-2.1-.53-.89-.8-1.9-.8-3s.27-2.11.8-3c.53-.9,1.26-1.59,2.2-2.1.93-.5,1.98-.76,3.14-.76s2.21.25,3.14.76c.93.5,1.67,1.2,2.2,2.09.53.89.8,1.89.8,3.01s-.27,2.12-.8,3.01c-.53.89-1.26,1.59-2.2,2.09-.93.5-1.98.76-3.14.76s-2.21-.25-3.14-.76Zm5.19-1.61c.61-.34,1.08-.82,1.43-1.43.35-.61.52-1.3.52-2.06s-.17-1.45-.52-2.06c-.35-.61-.82-1.09-1.43-1.43-.61-.34-1.29-.51-2.05-.51s-1.44.17-2.05.51c-.61.34-1.08.82-1.43,1.43-.35.61-.52,1.3-.52,2.06s.17,1.45.52,2.06c.35.61.82,1.09,1.43,1.43.61.34,1.29.51,2.05.51s1.44-.17,2.05-.51Z"/>
              <path class="cls-1" d="m1039.68,846.96c-.82-.25-1.47-.58-1.95-.99l.73-1.64c.47.37,1.04.67,1.72.9s1.36.35,2.04.35c.85,0,1.48-.14,1.9-.41.42-.27.63-.63.63-1.07,0-.33-.12-.59-.35-.81s-.53-.38-.89-.5c-.36-.12-.85-.25-1.46-.41-.87-.21-1.57-.41-2.11-.62s-1-.53-1.38-.97c-.39-.44-.58-1.03-.58-1.78,0-.63.17-1.2.51-1.72.34-.51.86-.92,1.55-1.23.69-.3,1.53-.46,2.53-.46.69,0,1.38.09,2.05.26.67.17,1.25.42,1.74.75l-.67,1.64c-.5-.29-1.02-.52-1.56-.67-.54-.15-1.07-.23-1.58-.23-.84,0-1.46.14-1.86.42-.41.28-.61.66-.61,1.12,0,.33.12.59.35.8s.53.37.89.49c.36.12.85.26,1.46.41.85.2,1.54.4,2.08.61.54.21,1.01.53,1.39.97.39.43.58,1.02.58,1.76,0,.63-.17,1.2-.51,1.71-.34.51-.86.92-1.55,1.22-.69.3-1.54.46-2.54.46-.88,0-1.73-.12-2.55-.38Z"/>
              <path class="cls-1" d="m1053.42,835.78h4.98c1.21,0,2.29.24,3.24.71.94.47,1.68,1.14,2.2,2,.52.86.78,1.86.78,2.99s-.26,2.12-.78,2.99-1.25,1.53-2.2,2c-.94.47-2.02.71-3.24.71h-4.98v-11.39Zm4.88,9.6c.83,0,1.57-.16,2.21-.48.63-.32,1.12-.78,1.46-1.37s.51-1.28.51-2.06-.17-1.47-.51-2.06c-.34-.59-.83-1.05-1.46-1.37-.63-.32-1.37-.48-2.21-.48h-2.77v7.81h2.77Z"/>
              <path class="cls-1" d="m1075.4,845.4v1.77h-8.54v-11.39h8.32v1.77h-6.2v2.96h5.5v1.74h-5.5v3.14h6.43Z"/>
            </g>
            <g class="cls-2">
              <path class="cls-1" d="m1084.56,837.57h-3.78v-1.79h9.67v1.79h-3.78v9.6h-2.12v-9.6Z"/>
            </g>
            <g class="cls-2">
              <path class="cls-1" d="m1098.87,844.54h-5.7l-1.12,2.64h-2.18l5.13-11.39h2.08l5.14,11.39h-2.21l-1.14-2.64Zm-.7-1.66l-2.15-4.98-2.13,4.98h4.28Z"/>
              <path class="cls-1" d="m1113.23,842.29c.37.48.55,1.08.55,1.8,0,.99-.38,1.75-1.14,2.29-.76.54-1.87.81-3.32.81h-5.66v-11.39h5.34c1.35,0,2.38.26,3.11.79.73.53,1.09,1.25,1.09,2.17,0,.56-.13,1.06-.39,1.5-.26.43-.62.77-1.07,1.01.63.21,1.13.55,1.5,1.03Zm-7.45-4.84v3.14h2.99c.74,0,1.3-.13,1.7-.4.4-.27.59-.65.59-1.16s-.2-.91-.59-1.18c-.4-.27-.96-.4-1.7-.4h-2.99Zm5.87,6.43c0-1.09-.82-1.64-2.46-1.64h-3.42v3.29h3.42c1.64,0,2.46-.55,2.46-1.64Z"/>
              <path class="cls-1" d="m1117.27,846.01c-.88-.88-1.32-2.15-1.32-3.8v-6.43h2.12v6.35c0,2.23.97,3.35,2.9,3.35s2.88-1.12,2.88-3.35v-6.35h2.08v6.43c0,1.65-.44,2.92-1.31,3.8-.87.88-2.1,1.33-3.67,1.33s-2.8-.44-3.68-1.33Z"/>
              <path class="cls-1" d="m1128.89,835.78h2.12v9.6h5.96v1.79h-8.07v-11.39Z"/>
              <path class="cls-1" d="m1147.18,845.4v1.77h-8.54v-11.39h8.32v1.77h-6.2v2.96h5.5v1.74h-5.5v3.14h6.43Z"/>
              <path class="cls-1" d="m1149.54,835.78h2.12v11.39h-2.12v-11.39Z"/>
              <path class="cls-1" d="m1162.18,847.17l-2.33-3.34c-.1.01-.24.02-.44.02h-2.57v3.32h-2.12v-11.39h4.69c.99,0,1.85.16,2.58.49s1.29.79,1.68,1.4.59,1.33.59,2.16-.21,1.59-.63,2.21-1.02,1.08-1.8,1.38l2.62,3.74h-2.28Zm-.76-9.01c-.48-.39-1.18-.59-2.1-.59h-2.47v4.54h2.47c.92,0,1.62-.2,2.1-.59.48-.4.72-.96.72-1.68s-.24-1.29-.72-1.68Z"/>
              <path class="cls-1" d="m1168.8,846.58c-.93-.5-1.67-1.2-2.2-2.1-.53-.89-.8-1.9-.8-3s.27-2.11.8-3c.53-.9,1.26-1.59,2.2-2.1.93-.5,1.98-.76,3.14-.76s2.21.25,3.14.76c.93.5,1.67,1.2,2.2,2.09.53.89.8,1.89.8,3.01s-.27,2.12-.8,3.01-1.26,1.59-2.2,2.09c-.93.5-1.98.76-3.14.76s-2.21-.25-3.14-.76Zm5.19-1.61c.61-.34,1.08-.82,1.43-1.43.35-.61.52-1.3.52-2.06s-.17-1.45-.52-2.06c-.35-.61-.83-1.09-1.43-1.43s-1.29-.51-2.05-.51-1.44.17-2.05.51-1.08.82-1.43,1.43c-.35.61-.52,1.3-.52,2.06s.17,1.45.52,2.06c.35.61.82,1.09,1.43,1.43s1.29.51,2.05.51,1.44-.17,2.05-.51Z"/>
            </g>
            <g class="cls-2">
              <path class="cls-1" d="m886.84,857.85h4.98c1.21,0,2.29.24,3.24.71s1.68,1.14,2.2,2c.52.86.78,1.86.78,2.99s-.26,2.12-.78,2.99c-.52.86-1.25,1.53-2.2,2s-2.02.71-3.24.71h-4.98v-11.39Zm4.88,9.6c.84,0,1.57-.16,2.21-.48.63-.32,1.12-.78,1.46-1.37s.51-1.28.51-2.06-.17-1.47-.51-2.06c-.34-.59-.83-1.05-1.46-1.37-.63-.32-1.37-.48-2.21-.48h-2.77v7.81h2.77Z"/>
              <path class="cls-1" d="m902.46,868.64c-.93-.5-1.67-1.2-2.2-2.1-.53-.89-.8-1.9-.8-3s.27-2.11.8-3c.53-.9,1.26-1.59,2.2-2.1.93-.5,1.98-.76,3.14-.76s2.21.25,3.14.76c.93.5,1.67,1.2,2.2,2.09.53.89.8,1.89.8,3.01s-.27,2.12-.8,3.01-1.26,1.59-2.2,2.09c-.93.5-1.98.76-3.14.76s-2.21-.25-3.14-.76Zm5.19-1.61c.61-.34,1.08-.82,1.43-1.43.35-.61.52-1.3.52-2.06s-.17-1.45-.52-2.06c-.35-.61-.83-1.09-1.43-1.43s-1.29-.51-2.05-.51-1.44.17-2.05.51-1.08.82-1.43,1.43c-.35.61-.52,1.3-.52,2.06s.17,1.45.52,2.06c.35.61.82,1.09,1.43,1.43s1.29.51,2.05.51,1.44-.17,2.05-.51Z"/>
              <path class="cls-1" d="m920.63,868.64c-.93-.5-1.65-1.2-2.18-2.09-.53-.89-.79-1.89-.79-3.01s.27-2.12.8-3.01c.53-.89,1.26-1.59,2.19-2.09.93-.5,1.97-.76,3.12-.76.93,0,1.78.16,2.55.49.77.33,1.42.8,1.95,1.42l-1.37,1.29c-.83-.89-1.84-1.33-3.04-1.33-.78,0-1.48.17-2.1.51-.62.34-1.1.82-1.45,1.42-.35.61-.52,1.3-.52,2.07s.17,1.46.52,2.07c.35.61.83,1.08,1.45,1.42.62.34,1.32.51,2.1.51,1.2,0,2.22-.45,3.04-1.35l1.37,1.3c-.53.62-1.18,1.09-1.96,1.42-.78.33-1.63.49-2.56.49-1.15,0-2.19-.25-3.12-.76Z"/>
              <path class="cls-1" d="m938.85,867.46v1.77h-8.54v-11.39h8.32v1.77h-6.2v2.96h5.5v1.74h-5.5v3.14h6.43Z"/>
              <path class="cls-1" d="m951.33,857.85v11.39h-1.74l-6.28-7.71v7.71h-2.1v-11.39h1.74l6.28,7.71v-7.71h2.1Z"/>
              <path class="cls-1" d="m956.7,859.64h-3.78v-1.79h9.67v1.79h-3.78v9.6h-2.12v-9.6Z"/>
              <path class="cls-1" d="m971.63,869.24l-2.33-3.34c-.1.01-.24.02-.44.02h-2.57v3.32h-2.12v-11.39h4.69c.99,0,1.85.16,2.58.49.73.33,1.29.79,1.68,1.4s.59,1.33.59,2.16-.21,1.59-.63,2.21c-.42.62-1.02,1.08-1.8,1.38l2.62,3.74h-2.28Zm-.76-9.01c-.48-.39-1.18-.59-2.1-.59h-2.47v4.54h2.47c.92,0,1.62-.2,2.1-.59.48-.4.72-.96.72-1.68s-.24-1.29-.72-1.68Z"/>
              <path class="cls-1" d="m978.26,868.64c-.93-.5-1.67-1.2-2.2-2.1-.53-.89-.8-1.9-.8-3s.27-2.11.8-3c.53-.9,1.26-1.59,2.2-2.1.93-.5,1.98-.76,3.14-.76s2.21.25,3.14.76c.93.5,1.67,1.2,2.2,2.09.53.89.8,1.89.8,3.01s-.27,2.12-.8,3.01-1.26,1.59-2.2,2.09c-.93.5-1.98.76-3.14.76s-2.21-.25-3.14-.76Zm5.19-1.61c.61-.34,1.08-.82,1.43-1.43.35-.61.52-1.3.52-2.06s-.17-1.45-.52-2.06c-.35-.61-.83-1.09-1.43-1.43s-1.29-.51-2.05-.51-1.44.17-2.05.51-1.08.82-1.43,1.43c-.35.61-.52,1.3-.52,2.06s.17,1.45.52,2.06c.35.61.82,1.09,1.43,1.43s1.29.51,2.05.51,1.44-.17,2.05-.51Z"/>
            </g>
            <g class="cls-2">
              <path class="cls-1" d="m996.43,868.64c-.93-.5-1.65-1.2-2.18-2.09s-.79-1.89-.79-3.01.27-2.12.8-3.01c.53-.89,1.26-1.59,2.19-2.09.93-.5,1.97-.76,3.12-.76.93,0,1.79.16,2.55.49.77.33,1.42.8,1.95,1.42l-1.37,1.29c-.82-.89-1.84-1.33-3.04-1.33-.78,0-1.48.17-2.1.51s-1.1.82-1.45,1.42c-.35.61-.52,1.3-.52,2.07s.17,1.46.52,2.07c.35.61.83,1.08,1.45,1.42s1.32.51,2.1.51c1.2,0,2.22-.45,3.04-1.35l1.37,1.3c-.53.62-1.19,1.09-1.96,1.42-.78.33-1.63.49-2.56.49-1.15,0-2.19-.25-3.12-.76Z"/>
            </g>
            <g class="cls-2">
              <path class="cls-1" d="m1007.24,868.08c-.88-.88-1.32-2.15-1.32-3.8v-6.43h2.12v6.35c0,2.23.97,3.35,2.9,3.35s2.88-1.12,2.88-3.35v-6.35h2.08v6.43c0,1.65-.44,2.92-1.31,3.8-.87.88-2.1,1.33-3.67,1.33s-2.8-.44-3.68-1.33Z"/>
            </g>
            <g class="cls-2">
              <path class="cls-1" d="m1018.86,857.85h2.12v9.6h5.96v1.79h-8.07v-11.39Z"/>
            </g>
            <g class="cls-2">
              <path class="cls-1" d="m1029.85,859.64h-3.78v-1.79h9.67v1.79h-3.78v9.6h-2.12v-9.6Z"/>
            </g>
            <g class="cls-2">
              <path class="cls-1" d="m1038.35,868.08c-.88-.88-1.32-2.15-1.32-3.8v-6.43h2.12v6.35c0,2.23.96,3.35,2.9,3.35s2.88-1.12,2.88-3.35v-6.35h2.08v6.43c0,1.65-.44,2.92-1.31,3.8-.87.88-2.1,1.33-3.67,1.33s-2.8-.44-3.68-1.33Z"/>
              <path class="cls-1" d="m1057.42,869.24l-2.33-3.34c-.1.01-.24.02-.44.02h-2.57v3.32h-2.12v-11.39h4.69c.99,0,1.85.16,2.58.49s1.29.79,1.68,1.4c.39.61.58,1.33.58,2.16s-.21,1.59-.63,2.21c-.42.62-1.02,1.08-1.8,1.38l2.62,3.74h-2.28Zm-.77-9.01c-.48-.39-1.18-.59-2.1-.59h-2.47v4.54h2.47c.92,0,1.62-.2,2.1-.59.48-.4.72-.96.72-1.68s-.24-1.29-.72-1.68Z"/>
              <path class="cls-1" d="m1069.25,866.6h-5.7l-1.12,2.64h-2.18l5.13-11.39h2.08l5.14,11.39h-2.21l-1.14-2.64Zm-.7-1.66l-2.15-4.98-2.13,4.98h4.28Z"/>
              <path class="cls-1" d="m1074.05,857.85h2.12v9.6h5.96v1.79h-8.07v-11.39Z"/>
            </g>
            <g class="cls-2">
              <path class="cls-1" d="m1088.29,857.85h4.98c1.21,0,2.29.24,3.24.71.94.47,1.68,1.14,2.2,2,.52.86.78,1.86.78,2.99s-.26,2.12-.78,2.99-1.25,1.53-2.2,2c-.94.47-2.02.71-3.24.71h-4.98v-11.39Zm4.88,9.6c.83,0,1.57-.16,2.21-.48.63-.32,1.12-.78,1.46-1.37s.51-1.28.51-2.06-.17-1.47-.51-2.06c-.34-.59-.83-1.05-1.46-1.37-.63-.32-1.37-.48-2.21-.48h-2.77v7.81h2.77Z"/>
            </g>
            <g class="cls-2">
              <path class="cls-1" d="m1108.95,866.6h-5.7l-1.12,2.64h-2.18l5.13-11.39h2.08l5.14,11.39h-2.21l-1.14-2.64Zm-.7-1.66l-2.15-4.98-2.13,4.98h4.28Z"/>
              <path class="cls-1" d="m1126.02,863.41h2v4.54c-.59.47-1.27.82-2.05,1.07-.78.25-1.58.38-2.41.38-1.16,0-2.21-.25-3.14-.76-.93-.5-1.67-1.2-2.2-2.09-.53-.89-.8-1.89-.8-3.01s.27-2.12.8-3.01c.53-.89,1.27-1.59,2.21-2.09.94-.5,1.99-.76,3.17-.76.95,0,1.82.16,2.6.47.78.31,1.44.78,1.97,1.38l-1.33,1.3c-.87-.87-1.91-1.3-3.14-1.3-.8,0-1.52.17-2.14.5-.62.34-1.11.81-1.46,1.42s-.53,1.3-.53,2.08.18,1.44.53,2.05.84,1.08,1.46,1.43,1.33.52,2.12.52c.89,0,1.67-.2,2.34-.59v-3.55Z"/>
            </g>
            <g class="cls-2">
              <path class="cls-1" d="m1132.03,868.08c-.88-.88-1.32-2.15-1.32-3.8v-6.43h2.12v6.35c0,2.23.96,3.35,2.9,3.35s2.88-1.12,2.88-3.35v-6.35h2.08v6.43c0,1.65-.44,2.92-1.31,3.8-.87.88-2.1,1.33-3.67,1.33s-2.8-.44-3.68-1.33Z"/>
            </g>
            <g class="cls-2">
              <path class="cls-1" d="m1150.79,866.6h-5.7l-1.12,2.64h-2.18l5.12-11.39h2.08l5.14,11.39h-2.21l-1.14-2.64Zm-.7-1.66l-2.15-4.98-2.13,4.98h4.28Z"/>
              <path class="cls-1" d="m1163.04,869.24l-2.33-3.34c-.1.01-.24.02-.44.02h-2.57v3.32h-2.12v-11.39h4.69c.99,0,1.85.16,2.58.49s1.29.79,1.68,1.4.59,1.33.59,2.16-.21,1.59-.63,2.21-1.02,1.08-1.8,1.38l2.62,3.74h-2.28Zm-.76-9.01c-.48-.39-1.18-.59-2.1-.59h-2.47v4.54h2.47c.92,0,1.62-.2,2.1-.59.48-.4.72-.96.72-1.68s-.24-1.29-.72-1.68Z"/>
            </g>
            <g class="cls-2">
              <path class="cls-1" d="m1167.48,857.85h4.98c1.21,0,2.29.24,3.24.71.94.47,1.68,1.14,2.2,2,.52.86.78,1.86.78,2.99s-.26,2.12-.78,2.99c-.52.86-1.25,1.53-2.2,2-.94.47-2.02.71-3.24.71h-4.98v-11.39Zm4.88,9.6c.83,0,1.57-.16,2.21-.48.63-.32,1.12-.78,1.46-1.37.34-.59.51-1.28.51-2.06s-.17-1.47-.51-2.06c-.34-.59-.83-1.05-1.46-1.37-.63-.32-1.37-.48-2.21-.48h-2.77v7.81h2.77Z"/>
            </g>
            <g class="cls-2">
              <path class="cls-1" d="m1188.15,866.6h-5.7l-1.12,2.64h-2.18l5.12-11.39h2.08l5.14,11.39h-2.21l-1.14-2.64Zm-.7-1.66l-2.15-4.98-2.13,4.98h4.28Z"/>
            </g>
          </g>
        </g>
        <g>
          <g>
            <path class="cls-1" d="m798.93,814.68c-2.05.93-4.04.77-5.91-.49-.33-.22-.62-.49-.91-.82.13.58.22,1.15.31,1.7.33,1.98.58,3.55,2.26,4.93.09.08.13.2.08.31-.04.11-.14.18-.26.18h-7.32c-.12,0-.23-.08-.26-.19-.04-.11,0-.24.09-.31,1.42-1.13,2.23-4.75,2.61-6.72-.95,1.13-2.2,1.78-3.71,1.93-2.1.22-3.87-.51-5.27-2.16-.93-1.1-1.37-2.53-1.29-4.25.07-1.5.55-2.95,1.53-4.57,1-1.66,2.2-3.09,3.54-4.66.26-.3.52-.6.78-.9,1.19-1.37,2.41-2.78,3.46-4.3.67-.97,1.49-2.29,1.9-3.95.03-.12.14-.21.26-.22.12,0,.24.08.27.2l.07.26c.04.15.08.29.12.42.46,1.48,1.29,2.73,2.11,3.86.94,1.28,1.99,2.49,3.01,3.66.46.53.92,1.06,1.37,1.59,1.05,1.25,2.15,2.59,3.03,4.09.85,1.43,1.31,2.73,1.46,4.08.31,2.81-.97,5.23-3.34,6.32h0Z"/>
            <g>
              <path class="cls-1" d="m813.52,788.07c-.54.25-1.09.23-1.6-.06.06.45.17.78.55,1.09.09.08.13.2.08.31-.04.11-.14.18-.26.18h-1.89c-.12,0-.23-.08-.26-.19s0-.24.09-.31c.2-.16.35-.62.44-1.03-.17.08-.36.14-.57.16-.61.06-1.14-.15-1.54-.63-.28-.33-.4-.74-.38-1.24.02-.42.15-.83.42-1.28.26-.44.58-.82.93-1.23l.2-.24c.3-.35.61-.71.88-1.09.24-.35.38-.64.46-.95.03-.12.14-.21.26-.22.14.02.24.08.27.2l.05.17c.11.36.31.66.51.94.24.33.51.63.77.93.12.14.24.28.36.42.28.33.57.68.81,1.09.24.4.36.76.4,1.14.09.82-.29,1.53-.98,1.84h0Z"/>
              <path class="cls-1" d="m814.74,779.56v.12c0,.18-.04.33-.15.42-.1.09-.22.12-.33.12-.06,0-.1,0-.15-.01-.03,0-.06,0-.08,0-.18.02-.65.01-1.15,0h-.29c-.12,0-.32,0-.46-.14-.09-.1-.13-.23-.12-.4,0-.04,0-.08,0-.12-.01-.15-.03-.35.11-.52.09-.11.23-.17.41-.18h.01s-.02-.07-.03-.1l-.04-.12c-.02-.09-.03-.19-.04-.29-.02-.28-.03-.28-.21-.28-.24.01-.48,0-.72,0h-.54c-.35,0-.57.18-.65.52-.03.12-.06.19-.08.26,0,.01-.01.03-.02.04.17.01.3.07.39.18.13.16.11.35.09.49,0,.03-.01.08,0,.1.03.2-.03.34-.1.41-.13.15-.34.17-.47.17h-1.61c-.12,0-.32,0-.46-.15-.06-.06-.13-.17-.11-.35,0-.03,0-.08-.01-.12-.05-.41.08-.64.39-.68.35-.04.4-.22.49-.63l.38-1.61c.47-2.02.94-4.04,1.4-6.06.14-.62.55-.68.94-.67h.07c.28.01.75.03.85.67.12.74.27,1.49.41,2.22.06.3.12.59.18.89l.21,1.09c.24,1.24.47,2.47.72,3.7v.06c.06.23.07.24.14.24.21,0,.37.07.47.19.16.18.15.4.14.57h0Z"/>
            </g>
          </g>
          <g>
            <g>
              <path class="cls-1" d="m700.17,749.55l-1.64-.95c-.17-.09-.38-.09-.54,0l-1.64.95c-.17.09-.27.28-.27.47v1.89c0,.19.1.37.27.47l1.64.95c.08.05.18.07.27.07s.19-.02.27-.07l1.64-.95c.17-.09.27-.28.27-.47v-1.89c0-.19-.1-.37-.27-.47h0Z"/>
              <path class="cls-1" d="m707.82,745.23l-1.64-.95c-.17-.09-.38-.09-.54,0l-1.64.95c-.17.09-.27.28-.27.47v1.89c0,.19.1.37.27.47l1.64.95c.08.05.18.07.27.07s.19-.02.27-.07l1.64-.95c.17-.09.27-.28.27-.47v-1.89c0-.19-.1-.37-.27-.47h0Z"/>
              <path class="cls-1" d="m715.46,740.9l-1.64-.95c-.17-.09-.38-.09-.54,0l-1.64.95c-.17.09-.27.28-.27.47v1.89c0,.19.1.37.27.47l1.64.95c.08.05.18.07.27.07s.19-.02.27-.07l1.64-.95c.17-.09.27-.28.27-.47v-1.89c0-.19-.1-.37-.27-.47h0Z"/>
              <path class="cls-1" d="m723.1,736.57l-1.64-.95c-.17-.09-.38-.09-.54,0l-1.64.95c-.17.09-.27.28-.27.47v1.89c0,.19.1.37.27.47l1.64.95c.08.05.18.07.27.07s.19-.02.27-.07l1.64-.95c.17-.09.27-.28.27-.47v-1.89c0-.19-.1-.37-.27-.47h0Z"/>
            </g>
            <path class="cls-1" d="m755.48,757.63c-1.15-.66-2.53-.67-3.68,0-1.15.67-1.84,1.85-1.84,3.18v10.31c0,.4.22.77.56.98l6.48,3.74c.18.1.37.15.56.15s.39-.05.56-.15c.35-.2.56-.57.56-.98v-11.67c0-2.29-1.23-4.42-3.22-5.57h0Z"/>
          </g>
          <g>
            <path class="cls-1" d="m678.58,795.91c-.03-.71-.16-1.41-.5-2.04-.93-1.79-3.1-2.37-4.98-2.44h0c-.83-.03-2.34,0-2.9.69h0l.04-.47h0l.27-3.51c.02-.21.19-.36.4-.36h7.25c.22,0,.4-.18.4-.4v-6.03c0-.22-.18-.4-.4-.4h-13.03c-.2,0-.38.16-.4.36l-1.53,18.64c-.02.23.17.43.4.43h5.61c.21,0,.38-.16.4-.37h0v-1.06c0-.68.56-1.23,1.23-1.23.62-.04,1.19.39,1.31.99.02.08.03.17.03.25v9.97c0,.15-.03.3-.08.43-.18.47-.65.8-1.15.8-.26.01-.53-.04-.75-.19-.3-.19-.52-.51-.57-.88,0-.06-.01-.1-.01-.16v-4.7c0-.22-.18-.4-.4-.4h-5.66c-.22,0-.39.17-.4.38-.03.76-.09,2.58-.06,4.69,0,.45.02.91.03,1.36.02.4.02.81.06,1.2.06.52.2,1.05.42,1.52.91,1.95,2.86,2.93,4.03,3.25.18.04.41.09.54.09.76.02,1.32.09,2.59.09.77,0,2.09-.03,3.02-.12,3.43-.46,4.82-3.94,4.78-6.66.01-.61.08-12.73.02-13.73h0Z"/>
            <polygon class="cls-1" points="682.85 831.52 645.63 831.52 645.63 822.85 686.27 822.85 682.85 831.52"/>
          </g>
          <path class="cls-1" d="m848.85,744.37l-112.94-65.21c-3.19-1.84-7.12-1.84-10.31,0l-112.95,65.21c-3.19,1.84-5.15,5.25-5.15,8.92v130.41c0,3.68,1.96,7.09,5.15,8.92l112.94,65.21c3.19,1.84,7.12,1.84,10.31,0l112.94-65.21c3.19-1.84,5.15-5.25,5.15-8.92v-130.41c0-3.68-1.96-7.09-5.15-8.92h0Zm-167.7,21.17c-.03,1.4-.49,2.7-1.3,3.83l-1.87,1.89c-3.64,2.92-10.63,2.92-14.27,0l-1.87-1.89c-.81-1.13-1.27-2.43-1.3-3.83h20.61Zm-22.11,80.17h-10.48c-.36,0-.72-.04-1.07-.11-2.51-.52-4.41-2.76-4.41-5.42v-31.72c.25.07.57.17.78.22.63.15,1.8.4,2.55.48,1.07.09,1.71-.3,2.05-1.12.19-.45.2-.93.25-1.4.08-.7.07-.7.83-.81,1.08-.16,1.75-.87,1.8-1.88.02-.45-.02-.9-.08-1.35q-.09-.61.51-.84c.15-.06.3-.12.44-.19.93-.46,1.26-1.13,1.05-2.08-.1-.44-.29-.86-.44-1.29q-.22-.61.32-.98c.97-.67,1.13-1.57.43-2.49-.28-.37-.59-.72-.89-1.08-.25-.3-.27-.61-.04-.93.57-.81.53-1.63-.1-2.38-.36-.42-.77-.79-1.22-1.13-.66-.47-.65-.48-.39-1.2.33-.9.06-1.62-.8-2.14-.49-.29-1.01-.5-1.56-.67-.28-.09-.63-.13-.83-.3-.2-.19.01-.52-.03-.79,0-.02,0-.05,0-.07-.06-1.2-.71-1.83-2-1.93-.61-.05-1.22-.09-1.84-.12-.17,0-.59-.01-.79-.02v-10.88c0-2.66,1.9-4.89,4.41-5.42.35-.07.71-.11,1.07-.11h8.84c.02,1.36.36,2.65.97,3.83l1.27,1.89c4.95,6.12,17.45,6.11,22.4,0l1.27-1.89c.61-1.18.95-2.47.97-3.83h8.84c3.03,0,5.51,2.5,5.51,5.57v10c-.18,0-.65,0-.82.02-.62.03-1.23.08-1.84.12-1.29.1-1.94.73-2,1.93v.07c-.04.27.18.61-.03.79-.19.18-.54.22-.83.3-.55.17-1.08.38-1.56.67-.85.52-1.13,1.25-.8,2.14.26.72.26.73-.39,1.2-.46.33-.87.7-1.22,1.13-.64.76-.68,1.58-.1,2.38.23.32.22.63-.04.93-.3.36-.61.71-.89,1.08-.7.92-.54,1.82.43,2.49.54.38.54.38.32.98-.15.43-.34.84-.44,1.29-.22.95.11,1.62,1.05,2.08.14.07.29.14.44.19q.61.23.51.84c-.07.45-.1.9-.08,1.35.05,1.01.72,1.72,1.8,1.88.76.12.75.12.83.81.05.47.06.95.25,1.4.34.82.98,1.21,2.05,1.12.75-.09,1.93-.33,2.55-.48.22-.05.56-.16.82-.23v10.61c-1.09-.26-2.2-.4-3.3-.4v3.8-3.8h0c-4.93,0-9.45,2.55-12.11,6.82-1.26,2.02-2.11,4.34-2.59,7.03-3.65,1.17-7.17,2.58-10.49,4.18-2.64,1.27-5.41,2.7-7.85,4.9-1.81,1.64-2.79,3.34-3.25,4.95h-.02Zm58.52-3.9c-1.31,1.85-2.65,3.76-3.91,5.7-2.9,4.51-6,9.98-7.07,16.45-.79,4.77-.28,8.83,1.58,12.42.71,1.37,1.63,2.57,2.81,3.66l-.18.13c-1.87,1.35-3.56,2.99-3.23,5.85.03.25-.03.32-.42.46-.59.22-1.14.45-1.66.68-.18-.04-.34-.1-.51-.16-.17-.07-.33-.14-.48-.22-.77-.41-1.41-1.03-1.97-1.77-.54-.7-1.05-1.41-1.56-2.12s-1.01-1.43-1.5-2.16c-.25-.36-.49-.73-.73-1.09-.49-.73-.97-1.46-1.46-2.2-.24-.36-.49-.73-.72-1.1-.38-.57-.76-1.15-1.18-1.8-.36.55-.7,1.06-1.04,1.58-.99,1.49-1.97,2.99-2.97,4.47-1,1.48-2.04,2.95-3.12,4.37-.08.1-.16.2-.24.3-.05.06-.1.11-.15.17-.03.04-.07.07-.1.11-.06.06-.12.12-.18.18-.03.03-.06.06-.08.08-.07.06-.13.12-.19.18-.02.02-.04.04-.07.06-.06.06-.13.1-.19.15-.03.02-.06.04-.08.07-.06.04-.13.09-.19.13-.03.02-.06.04-.09.07-.07.04-.13.08-.2.12-.03.02-.06.04-.09.06-.06.04-.13.07-.19.1-.04.02-.07.04-.1.06-.06.03-.13.06-.19.09-.04.02-.08.04-.12.06-.06.03-.13.05-.19.07l-.13.05c-.06.02-.13.04-.19.06-.05.02-.09.03-.14.04-.07.02-.13.03-.19.05-.05.01-.09.03-.14.03-.06.01-.13.02-.19.03-.05.01-.1.02-.15.03-.06.01-.13.02-.19.02-.06,0-.11.02-.17.02s-.13.01-.19.02c-.06,0-.12.01-.18.01h-2.45c-1.68,0-3.36,0-5.05,0-2.27,0-4.53,0-6.8,0-.87,0-1.73-.11-2.58-.37-1.46-.46-2.34-1.61-2.39-3.13-.02-.42,0-.84.06-1.26.14-1.24.53-2.43.91-3.61.29-.89.6-1.77.94-2.64.34-.87.7-1.73,1.07-2.58.75-1.7,1.57-3.38,2.42-5.04,1.3-2.56,2.7-5.07,4.13-7.56.86-1.49,1.74-2.97,2.62-4.46h0c.13-.22-.01-.51-.26-.54-.52-.07-1.03-.13-1.53-.2s-1.01-.14-1.51-.21c-.92-.14-1.84-.29-2.75-.48-1.51-.32-2.98-.77-4.38-1.51-.44-.23-.85-.49-1.24-.77-.47-.35-.9-.74-1.26-1.2-.07-.09-.14-.18-.2-.28-.4-.57-.69-1.22-.85-1.97h0c-.03-.17-.06-.34-.08-.5,0-.05-.01-.1-.02-.15-.01-.12-.02-.24-.03-.35v-.5s0-.09,0-.13c0-.13.02-.26.04-.39,0-.02,0-.04,0-.07.09-.64.3-1.25.6-1.81.41-.78,1-1.49,1.72-2.15,2.05-1.86,4.48-3.11,6.95-4.3,3.77-1.82,7.67-3.31,11.69-4.51.55-.17.62-.5.67-.95.29-2.54.93-4.98,2.29-7.17,2.01-3.24,5.38-5.03,8.88-5.03.54,0,1.09.05,1.63.13-.05.4-.04.81.03,1.24.45,2.52,1.1,4.73,2,6.76.62,1.41,1.74,2.23,3.21,2.38.25.03.33.14.52.41l.02.03c1.32,1.94,3.13,2.78,5.36,2.5,3.83,1.17,7.55,2.6,11.14,4.35-.56.8-1.12,1.6-1.67,2.38h-.02Zm6.25-11.36c-.45,2.12-1.36,3.99-2.46,5.79-2.65-1.32-5.45-2.5-8.43-3.57.15-.15.3-.3.44-.46.5-.57,1.09-.95,1.88-1.2.36-.12.73-.23,1.1-.34,2.01-.63,4.09-1.29,6.17-1.72.42-.09,1.3-.26,1.46-.1.17.17-.02,1.04-.14,1.62Zm4.91-36.62c-1.47,1.45-2.49,3.32-3.03,5.59-.03.14-.06.29-.06.43-.59.06-1.11.15-1.57.28,0-.03,0-.07,0-.1.15-2.58,1.17-4.77,3.01-6.5.06-.06.12-.1.18-.15.22-.18.5-.39.63-.82.03-.09.01-.18-.04-.26-.06-.08-.14-.12-.23-.12-2.22-.08-4.1.31-5.78,1.21-2.55,1.36-3.95,3.33-4.08,5.69-.09,1.85-.95,2.63-2.4,3.34-.13.07-.25.14-.38.22-.09.06-.19.12-.28.17-1.65.86-2.58,2.28-2.74,4.2-.05.6-.26,1.13-.65,1.67-1.41,1.96-3.34,3.44-5.05,4.75-1.27.98-2.59,1.95-3.87,2.89v-45.21c0-5.18-4.16-9.39-9.28-9.39h-4.03l.52-19.35c0-.64.28-1.24.74-1.68.15-.15.34-.28.54-.38l36.73-21.25h0c.1-.06.23-.09.36-.09.41,0,.76.34.76.76v74.12h-.01Zm81.16,40.83l-32.03-18.5-1.36-50.64h36.54c.38,0,.74.04,1.09.12.18.04.35.08.52.14.34.11.66.25.97.42.15.09.3.18.45.28,1.44,1,2.39,2.71,2.39,4.63v69.01c0,1.16-.34,2.23-.93,3.12-.29.45-.65.84-1.05,1.19-.27.23-.56.43-.87.6s-.63.31-.97.42c-.51.17-1.05.25-1.61.25h-1.53v-8.26c0-1.15-.62-2.22-1.61-2.79h0Zm-50.84,16.86c-.66-.85-1.34-1.73-1.9-2.66-.47-.78-.95-1.68-1.2-2.73.51.61,1.12,1.09,1.72,1.56.2.16.41.33.61.49,1.04.86,1.81,1.95,2.44,2.98l-.84,1.46c-.28-.37-.56-.74-.83-1.09h0Zm.34,13.91h-2.28s-.02-.04-.03-.06l1.04-1.8c.4.46.75.97,1.06,1.5.07.12.14.24.22.35h0Zm-2.93-44.19c.45.18.89.34,1.33.5,1.25.46,2.45.9,3.52,1.64l-1.42.82c-.28-.21-.55-.42-.84-.63-.93-.68-1.83-1.38-2.58-2.33h0Zm3.54,16c-.29-.33-.58-.66-.88-.99-.44-.49-.81-.97-1.13-1.47l.97-.2c1.59,1.1,3.09,2.15,4,3.96.05.09.14.15.25.16.11,0,.2-.05.26-.14.65-1.08.82-2.1.95-3.06.1-.74.15-1.45.16-2.12l7.3-1.55-8.64,14.96c.49-3.51-.16-6.12-2.04-8.19-.41-.45-.81-.9-1.21-1.36h0Zm2.35-10.77l11.5-6.64v7.53l-9.81,2.09c-.31-.91-.74-1.74-1.31-2.52-.12-.16-.24-.31-.37-.47h0Zm-.5,30.65l13.97-24.19,18.77,32.51h-33.45c1.06-2.3,1.29-5.51.72-8.32h0Zm25.92-11.39h0l-8.02-13.89,27.8,5.91-3.14,7.99-6.74,17.15-9.9-17.15h0Zm-9.98-18.35v-7.53l20.66,11.93-20.66-4.39Zm-18.98-107.63c0-1.11.9-2.02,2.02-2.02s2.02.9,2.02,2.02v11.49l-4.04-2.34v-9.15h0Zm-8.59,82.23c-.36,0-.72,0-1.08.01-1.06.02-2.16.03-3.23-.09.47-.17.91-.39,1.35-.6.46-.23.89-.44,1.35-.6.99-.35,2.05-.41,3.17-.47.2-.01.39-.02.6-.03.1,0,.2-.07.24-.17.04-.09.04-.2-.02-.29-1.1-1.61-2.47-2.85-4.16-3.79-1.57-.88-3.48-1.72-5.69-1.35-1.33.23-2.49.88-3.61,1.52-.15.09-.3.17-.45.26l-.26.15c-.25.14-.5.29-.74.41,1.8-1.99,2.62-4.28,2.43-6.82-.03-.37-.1-.82-.44-1.04-.33-.21-.75-.09-1.04.02-.61.23-1.21.44-1.83.66-1.34.48-2.72.98-4.05,1.54v-71.59c0-.41.34-.76.76-.76.13,0,.26.03.36.09h0l36.73,21.25c.5.26.87.67,1.08,1.15.13.29.2.6.2.92l.62,23.16h0l1.36,50.59-10.34,5.97c-.01-.85-.1-1.71-.28-2.59-.71-3.61-2.58-5.95-5.7-7.13-.42-.16-.84-.31-1.27-.46-1.1-.39-2.23-.8-3.29-1.33-.01,0-.02-.01-.03-.02h.89c2.11-.01,4.1-.01,6.02,1.03.09.05.21.04.3-.01s.14-.16.13-.26c-.06-.88-.29-1.56-.52-2.22l-.03-.1c-1.57-4.59-4.87-7.02-9.54-7.02h-.01Zm4.82,59.04l-.38.65c-.04-.08-.09-.16-.13-.24-.26-.54-.44-1.08-.55-1.67.31.48.65.9,1.04,1.26h0Zm-4.39,18.1c.46-.43,1.6-1.33,2.13-1.75.34-.27.53-.42.58-.47,1.06-.95,1.94-2.03,2.62-3.2l12.04,15.47-17.38-10.03h0Zm7.01-9.72h36.3l-18.15,23.31-18.15-23.31h0Zm25.93,19.75l14.82-19.03,8.17,5.76-22.99,13.27Zm24.67-16.92l-7.85-5.54,7.85-19.97v25.51h0Z"/>
        </g>
      </g>
    </g>
  </g>
</svg>