<?xml version="1.0" encoding="UTF-8"?>
<svg id="Layer_2" data-name="Layer 2" xmlns="http://www.w3.org/2000/svg" viewBox="0 0 1187.83 1224.52">
  <defs>
    <style>
      .cls-1 {
        letter-spacing: .05em;
      }

      .cls-2, .cls-3, .cls-4, .cls-5, .cls-6, .cls-7, .cls-8, .cls-9, .cls-10 {
        fill: #fff;
      }

      .cls-11 {
        letter-spacing: -.03em;
      }

      .cls-3 {
        letter-spacing: -.03em;
      }

      .cls-3, .cls-4, .cls-5, .cls-12, .cls-6, .cls-7, .cls-8, .cls-9, .cls-10 {
        isolation: isolate;
      }

      .cls-3, .cls-4, .cls-7, .cls-8, .cls-10 {
        font-family: Montserrat-SemiBold, Montserrat;
        font-size: 11.99px;
        font-weight: 600;
      }

      .cls-13, .cls-9 {
        letter-spacing: .06em;
      }

      .cls-4, .cls-14 {
        letter-spacing: 0em;
      }

      .cls-5, .cls-6, .cls-9 {
        font-family: Montserrat-Bold, Montserrat;
        font-size: 48.78px;
        font-weight: 700;
      }

      .cls-12 {
        fill: none;
      }

      .cls-6 {
        letter-spacing: .07em;
      }

      .cls-7 {
        letter-spacing: -.06em;
      }

      .cls-10 {
        letter-spacing: -.01em;
      }
    </style>
  </defs>
  <g id="Layer_1-2" data-name="Layer 1">
    <rect width="1187.83" height="1224.52"/>
    <g id="Layer_2-2" data-name="Layer 2-2">
      <g>
        <g>
          <g class="cls-12">
            <text class="cls-6" transform="translate(583.46 610.91)"><tspan x="0" y="0">S</tspan></text>
            <text class="cls-9" transform="translate(618.68 610.91)"><tspan x="0" y="0">J</tspan></text>
            <text class="cls-6" transform="translate(648.97 610.91)"><tspan x="0" y="0">T</tspan></text>
            <text class="cls-5" transform="translate(683.12 610.91)"><tspan class="cls-1" x="0" y="0">C</tspan><tspan class="cls-13" x="37.95" y="0">C</tspan></text>
            <text class="cls-6" transform="translate(760.97 610.91)"><tspan x="0" y="0">G</tspan></text>
          </g>
          <g class="cls-12">
            <text class="cls-8" transform="translate(583.46 633.39)"><tspan x="0" y="0">S</tspan></text>
            <text class="cls-8" transform="translate(591.01 633.39)"><tspan x="0" y="0">E</tspan></text>
            <text class="cls-8" transform="translate(599 633.39)"><tspan class="cls-11" x="0" y="0">C</tspan><tspan class="cls-14" x="8.42" y="0">Ç</tspan></text>
            <text class="cls-8" transform="translate(616.08 633.39)"><tspan x="0" y="0">Ã</tspan></text>
            <text class="cls-8" transform="translate(624.94 633.39)"><tspan x="0" y="0">O DE JOGOS DE </tspan></text>
            <text class="cls-3" transform="translate(727.47 633.39)"><tspan x="0" y="0">T</tspan></text>
            <text class="cls-8" transform="translate(734.27 633.39)"><tspan x="0" y="0">ABULEIRO </tspan></text>
            <text class="cls-8" transform="translate(583.46 649.65)"><tspan x="0" y="0">DO CENTRO </tspan></text>
            <text class="cls-8" transform="translate(662.63 649.65)"><tspan x="0" y="0">C</tspan></text>
            <text class="cls-8" transform="translate(671.29 649.65)"><tspan x="0" y="0">U</tspan></text>
            <text class="cls-7" transform="translate(680.75 649.65)"><tspan x="0" y="0">L</tspan></text>
            <text class="cls-4" transform="translate(687.15 649.65)"><tspan x="0" y="0">T</tspan></text>
            <text class="cls-8" transform="translate(694.22 649.65)"><tspan x="0" y="0">URAL </tspan></text>
            <text class="cls-8" transform="translate(731.92 649.65)"><tspan x="0" y="0">D</tspan></text>
            <text class="cls-8" transform="translate(741.71 649.65)"><tspan x="0" y="0">A G</tspan></text>
            <text class="cls-10" transform="translate(763.25 649.65)"><tspan x="0" y="0">U</tspan></text>
            <text class="cls-8" transform="translate(772.53 649.65)"><tspan x="0" y="0">AR</tspan></text>
            <text class="cls-8" transform="translate(790.28 649.65)"><tspan x="0" y="0">D</tspan></text>
            <text class="cls-8" transform="translate(800.07 649.65)"><tspan x="0" y="0">A</tspan></text>
          </g>
        </g>
        <g>
          <g>
            <path class="cls-2" d="m519.8,609.45c-1.51.69-2.98.57-4.36-.36-.24-.16-.46-.36-.67-.6.09.43.16.85.23,1.26.24,1.46.43,2.61,1.66,3.63.07.06.09.15.06.23-.03.08-.11.13-.19.13h-5.39c-.09,0-.17-.06-.2-.14-.03-.08,0-.17.07-.23,1.05-.83,1.65-3.5,1.93-4.95-.7.83-1.62,1.31-2.73,1.42-1.54.16-2.85-.38-3.89-1.59-.69-.81-1.01-1.87-.95-3.13.05-1.11.41-2.17,1.13-3.37.74-1.22,1.62-2.28,2.61-3.43.19-.22.38-.44.58-.67.87-1.01,1.78-2.05,2.55-3.17.49-.72,1.1-1.69,1.4-2.91.02-.09.1-.15.2-.16.09,0,.17.06.2.15l.05.19c.03.11.06.21.09.31.34,1.09.95,2.01,1.56,2.85.69.94,1.47,1.84,2.22,2.7.34.39.67.78,1.01,1.17.77.92,1.59,1.91,2.24,3.01.63,1.05.97,2.01,1.08,3.01.23,2.07-.72,3.86-2.46,4.65h0Z"/>
            <g>
              <path class="cls-2" d="m530.55,589.83c-.4.18-.8.17-1.18-.04.04.33.12.57.4.8.07.06.09.15.06.23-.03.08-.11.13-.19.13h-1.39c-.09,0-.17-.06-.2-.14s0-.17.07-.23c.15-.12.26-.46.33-.76-.13.06-.27.1-.42.12-.45.04-.84-.11-1.13-.46-.2-.24-.3-.55-.28-.91.01-.31.11-.61.31-.94.2-.33.43-.6.69-.91l.15-.17c.22-.26.45-.52.65-.8.18-.26.28-.47.34-.7.02-.09.1-.15.2-.16.1.01.17.06.2.15l.04.13c.08.26.23.49.38.69.17.24.37.47.57.69.09.1.18.2.26.31.2.24.42.5.59.8.17.29.27.56.3.84.07.61-.21,1.13-.72,1.36h0Z"/>
              <path class="cls-2" d="m531.45,583.56v.09c0,.13-.03.24-.11.31-.07.07-.16.09-.24.09-.04,0-.08,0-.11,0-.02,0-.04,0-.06,0-.13.01-.48,0-.85,0h-.21c-.09,0-.24,0-.34-.11-.07-.07-.1-.17-.09-.29,0-.03,0-.06,0-.09,0-.11-.02-.26.08-.38.07-.08.17-.13.3-.13h0s-.02-.05-.02-.08l-.03-.09c-.02-.07-.02-.14-.03-.22-.02-.21-.02-.21-.15-.2-.17,0-.35,0-.53,0h-.39c-.26,0-.42.13-.48.38-.02.09-.04.14-.06.19,0,0,0,.02-.01.03.13,0,.22.05.29.13.1.12.08.26.07.36,0,.02,0,.06,0,.07.02.15-.02.25-.07.3-.1.11-.25.13-.35.13h-1.19c-.09,0-.24,0-.34-.11-.04-.04-.09-.13-.08-.26,0-.02,0-.06,0-.09-.04-.3.06-.47.29-.5.26-.03.3-.16.36-.47l.28-1.18c.35-1.49.7-2.98,1.03-4.47.1-.46.41-.5.69-.49h.05c.21,0,.55.02.63.5.09.54.2,1.1.3,1.63.04.22.09.43.13.65l.15.8c.17.91.35,1.82.53,2.73v.04c.04.17.05.17.1.17.15,0,.27.05.35.14.12.13.11.3.11.42h0Z"/>
            </g>
          </g>
          <g>
            <g>
              <path class="cls-2" d="m447.02,561.45l-1.21-.7c-.12-.07-.28-.07-.4,0l-1.21.7c-.12.07-.2.2-.2.35v1.39c0,.14.08.27.2.35l1.21.7c.06.04.13.05.2.05s.14-.02.2-.05l1.21-.7c.12-.07.2-.2.2-.35v-1.39c0-.14-.08-.27-.2-.35h0Z"/>
              <path class="cls-2" d="m452.66,558.26l-1.21-.7c-.12-.07-.28-.07-.4,0l-1.21.7c-.12.07-.2.2-.2.35v1.39c0,.14.08.27.2.35l1.21.7c.06.04.13.05.2.05s.14-.02.2-.05l1.21-.7c.12-.07.2-.2.2-.35v-1.39c0-.14-.08-.27-.2-.35h0Z"/>
              <path class="cls-2" d="m458.29,555.07l-1.21-.7c-.12-.07-.28-.07-.4,0l-1.21.7c-.12.07-.2.2-.2.35v1.39c0,.14.08.27.2.35l1.21.7c.06.04.13.05.2.05s.14-.02.2-.05l1.21-.7c.12-.07.2-.2.2-.35v-1.39c0-.14-.08-.27-.2-.35h0Z"/>
              <path class="cls-2" d="m463.92,551.89l-1.21-.7c-.12-.07-.28-.07-.4,0l-1.21.7c-.12.07-.2.2-.2.35v1.39c0,.14.08.27.2.35l1.21.7c.06.04.13.05.2.05s.14-.02.2-.05l1.21-.7c.12-.07.2-.2.2-.35v-1.39c0-.14-.08-.27-.2-.35h0Z"/>
            </g>
            <path class="cls-2" d="m487.78,567.4c-.85-.49-1.86-.49-2.71,0-.85.49-1.35,1.37-1.35,2.35v7.6c0,.3.16.57.41.72l4.78,2.76c.13.07.27.11.41.11s.28-.04.41-.11c.26-.15.41-.42.41-.72v-8.6c0-1.69-.91-3.26-2.37-4.1h0Z"/>
          </g>
          <g>
            <path class="cls-2" d="m431.11,595.62c-.02-.52-.12-1.04-.37-1.5-.69-1.32-2.28-1.74-3.67-1.8h0c-.61-.02-1.73,0-2.14.51h0l.03-.35h0l.2-2.59c.01-.15.14-.27.29-.27h5.34c.16,0,.29-.13.29-.29v-4.44c0-.16-.13-.29-.29-.29h-9.61c-.15,0-.28.12-.29.27l-1.13,13.74c-.01.17.12.32.29.32h4.13c.15,0,.28-.12.29-.27h0v-.78c0-.5.41-.91.91-.91.46-.03.88.28.96.73.01.06.02.12.02.18v7.35c0,.11-.02.22-.06.32-.13.35-.48.59-.85.59-.19,0-.39-.03-.55-.14-.22-.14-.39-.38-.42-.65,0-.04,0-.08,0-.12v-3.46c0-.16-.13-.29-.29-.29h-4.17c-.16,0-.28.12-.29.28-.02.56-.07,1.9-.04,3.46,0,.33.01.67.02,1,.01.29.02.59.04.89.04.39.15.77.31,1.12.67,1.44,2.11,2.16,2.97,2.39.13.03.3.07.4.07.56.01.97.07,1.91.07.57,0,1.54-.02,2.22-.09,2.52-.34,3.55-2.9,3.52-4.91,0-.45.06-9.38.01-10.12h0Z"/>
            <polygon class="cls-2" points="434.26 621.86 406.83 621.86 406.83 615.47 436.78 615.47 434.26 621.86"/>
          </g>
          <path class="cls-2" d="m556.59,557.63l-83.23-48.06c-2.35-1.36-5.25-1.36-7.6,0l-83.24,48.06c-2.35,1.36-3.8,3.87-3.8,6.58v96.11c0,2.72,1.45,5.22,3.8,6.58l83.23,48.06c2.35,1.36,5.25,1.36,7.6,0l83.23-48.06c2.35-1.36,3.8-3.87,3.8-6.58v-96.11c0-2.72-1.45-5.22-3.8-6.58h0Zm-123.59,15.6c-.02,1.03-.36,1.99-.96,2.83l-1.38,1.39c-2.68,2.15-7.83,2.15-10.52,0l-1.38-1.39c-.59-.83-.94-1.79-.96-2.83h15.19Zm-16.29,59.08h-7.72c-.27,0-.53-.03-.79-.08-1.85-.39-3.25-2.04-3.25-3.99v-23.37c.19.05.42.12.58.16.46.11,1.33.29,1.88.35.79.07,1.26-.22,1.51-.83.14-.33.15-.68.19-1.03.06-.51.05-.51.61-.59.8-.12,1.29-.64,1.33-1.39.02-.33-.01-.67-.06-1q-.07-.45.38-.62c.11-.04.22-.09.33-.14.69-.34.93-.83.77-1.53-.07-.33-.22-.63-.33-.95q-.16-.45.24-.72c.71-.49.83-1.16.32-1.83-.21-.27-.43-.53-.65-.79-.19-.22-.2-.45-.03-.68.42-.59.39-1.2-.08-1.76-.26-.31-.57-.59-.9-.83-.48-.35-.48-.35-.29-.89.24-.66.04-1.2-.59-1.58-.36-.22-.75-.37-1.15-.5-.21-.07-.47-.09-.61-.22-.15-.14,0-.39-.02-.59,0-.02,0-.04,0-.05-.04-.88-.52-1.35-1.47-1.42-.45-.04-.9-.07-1.35-.09-.13,0-.43,0-.59-.01v-8.02c0-1.96,1.4-3.61,3.25-4,.26-.05.52-.08.79-.08h6.52c.02,1,.26,1.96.71,2.83l.94,1.39c3.65,4.51,12.86,4.5,16.51,0l.94-1.39c.45-.87.7-1.82.71-2.83h6.51c2.23,0,4.06,1.85,4.06,4.11v7.37c-.13,0-.48,0-.61.01-.46.02-.91.06-1.35.09-.95.08-1.43.54-1.47,1.42v.05c-.03.2.13.45-.02.59-.14.13-.4.16-.61.22-.4.13-.79.28-1.15.5-.63.38-.83.92-.59,1.58.19.53.2.54-.29.89-.34.24-.64.52-.9.83-.47.56-.5,1.16-.08,1.76.17.24.16.46-.03.68-.22.26-.45.52-.65.79-.51.67-.39,1.34.32,1.83.4.28.39.28.24.72-.11.32-.25.62-.33.95-.16.7.08,1.2.77,1.53.11.05.22.1.33.14q.45.17.38.62c-.05.33-.08.66-.06,1,.04.75.53,1.26,1.33,1.39.56.09.55.09.61.59.04.35.04.7.19,1.03.25.6.72.89,1.51.83.55-.07,1.42-.24,1.88-.35.16-.04.41-.12.6-.17v7.82c-.8-.2-1.62-.3-2.43-.3v2.8-2.8h0c-3.63,0-6.97,1.88-8.92,5.02-.93,1.49-1.56,3.2-1.91,5.18-2.69.87-5.28,1.9-7.73,3.08-1.94.93-3.99,1.99-5.78,3.61-1.33,1.21-2.05,2.46-2.4,3.65h-.02Zm43.13-2.87c-.96,1.36-1.96,2.77-2.88,4.2-2.13,3.32-4.42,7.36-5.21,12.13-.59,3.52-.2,6.51,1.16,9.15.52,1.01,1.2,1.89,2.07,2.7l-.13.1c-1.38.99-2.62,2.2-2.38,4.31.02.18-.02.24-.31.34-.43.16-.84.33-1.22.5-.13-.03-.25-.07-.37-.12-.12-.05-.24-.1-.35-.16-.57-.3-1.04-.76-1.45-1.3-.39-.51-.78-1.04-1.15-1.56s-.74-1.06-1.11-1.59c-.18-.27-.36-.54-.54-.8-.36-.54-.72-1.08-1.07-1.62-.18-.27-.36-.54-.53-.81-.28-.42-.56-.85-.87-1.33-.26.4-.51.78-.76,1.16-.73,1.1-1.45,2.2-2.19,3.3-.74,1.09-1.5,2.17-2.3,3.22-.06.08-.12.15-.17.22-.04.04-.07.08-.11.13-.02.03-.05.05-.07.08-.04.04-.09.09-.13.13-.02.02-.04.04-.06.06-.05.04-.09.09-.14.13-.02.02-.03.03-.05.04-.04.04-.09.07-.14.11-.02.02-.04.03-.06.05-.04.03-.09.07-.14.1-.02.02-.04.03-.07.05-.05.03-.1.06-.15.09-.02.01-.04.03-.07.04-.04.03-.09.05-.14.08-.03.01-.05.03-.08.04-.04.02-.09.04-.14.07-.03.01-.06.03-.09.04-.04.02-.09.04-.14.05l-.1.04s-.09.03-.14.04c-.04.01-.07.02-.11.03-.05.01-.09.02-.14.04-.04,0-.07.02-.11.02-.04,0-.09.02-.14.02-.04,0-.08.02-.11.02-.04,0-.09.01-.14.02-.04,0-.08.01-.13.02s-.09,0-.14.01c-.04,0-.09,0-.13,0h-1.81c-1.24,0-2.48,0-3.72,0-1.67,0-3.34,0-5.01,0-.64,0-1.28-.08-1.9-.27-1.07-.34-1.73-1.19-1.76-2.31-.01-.31,0-.62.04-.93.11-.91.39-1.79.67-2.66.21-.65.44-1.3.69-1.94.25-.64.51-1.27.79-1.9.55-1.25,1.16-2.49,1.78-3.71.96-1.89,1.99-3.74,3.04-5.57.63-1.1,1.28-2.19,1.93-3.28h0c.1-.16,0-.37-.2-.4-.38-.05-.76-.1-1.13-.15s-.74-.1-1.11-.15c-.68-.1-1.36-.21-2.02-.35-1.11-.24-2.2-.57-3.23-1.11-.32-.17-.63-.36-.91-.57-.35-.26-.67-.55-.93-.88-.05-.07-.1-.13-.15-.2-.29-.42-.51-.9-.63-1.46h0c-.02-.13-.04-.25-.06-.37,0-.04,0-.07-.01-.11,0-.09-.02-.17-.02-.26v-.37s0-.07,0-.1c0-.1.02-.2.03-.29,0-.02,0-.03,0-.05.07-.47.22-.92.44-1.34.3-.57.74-1.1,1.27-1.58,1.51-1.37,3.3-2.29,5.12-3.17,2.78-1.34,5.65-2.44,8.61-3.32.4-.12.46-.37.5-.7.21-1.87.68-3.67,1.69-5.28,1.48-2.39,3.96-3.7,6.54-3.7.4,0,.8.04,1.2.1-.04.29-.03.59.02.91.33,1.85.81,3.48,1.47,4.98.46,1.04,1.28,1.65,2.37,1.76.18.02.24.1.38.3l.02.02c.98,1.43,2.3,2.05,3.95,1.84,2.82.87,5.57,1.91,8.21,3.21-.41.59-.83,1.18-1.23,1.75h-.01Zm4.61-8.37c-.33,1.56-1,2.94-1.81,4.26-1.96-.98-4.02-1.85-6.22-2.63.11-.11.22-.22.32-.34.37-.42.8-.7,1.38-.89.27-.09.54-.17.81-.25,1.48-.47,3.01-.95,4.55-1.27.31-.07.96-.2,1.07-.08.12.12-.02.76-.11,1.19Zm3.62-26.99c-1.09,1.07-1.83,2.44-2.24,4.12-.02.1-.04.21-.04.32-.43.04-.82.11-1.16.21,0-.02,0-.05,0-.07.11-1.9.86-3.51,2.22-4.79.04-.04.09-.07.13-.11.16-.13.37-.29.47-.6.02-.07,0-.13-.03-.19-.04-.06-.1-.09-.17-.09-1.63-.06-3.02.23-4.26.89-1.88,1-2.91,2.45-3,4.2-.07,1.37-.7,1.93-1.77,2.46-.1.05-.19.1-.28.16-.07.04-.14.09-.21.12-1.22.63-1.9,1.68-2.02,3.1-.04.44-.19.83-.48,1.23-1.04,1.45-2.46,2.54-3.72,3.5-.94.72-1.91,1.43-2.85,2.13v-33.32c0-3.82-3.07-6.92-6.84-6.92h-2.97l.38-14.26c0-.47.2-.91.55-1.24.11-.11.25-.2.39-.28l27.07-15.66h0c.08-.04.17-.07.27-.07.3,0,.56.25.56.56v54.62h0Zm59.81,30.09l-23.61-13.63-1-37.32h26.93c.28,0,.54.03.8.09.13.03.26.06.38.1.25.08.49.19.72.31.11.07.22.13.33.21,1.06.74,1.76,2,1.76,3.41v50.86c0,.85-.25,1.64-.68,2.3-.22.33-.48.62-.77.87-.2.17-.41.32-.64.44s-.47.23-.72.31c-.37.12-.77.19-1.19.19h-1.13v-6.09c0-.85-.46-1.63-1.19-2.06h0Zm-37.47,12.43c-.48-.63-.99-1.28-1.4-1.96-.35-.57-.7-1.24-.88-2.01.37.45.83.8,1.27,1.15.15.12.3.24.45.36.76.63,1.33,1.43,1.8,2.2l-.62,1.08c-.2-.27-.41-.54-.61-.8h0Zm.25,10.25h-1.68s-.01-.03-.02-.04l.76-1.33c.29.34.55.71.78,1.11.05.09.11.17.16.26h0Zm-2.16-32.57c.33.13.65.25.98.37.92.34,1.81.66,2.59,1.21l-1.05.61c-.2-.15-.41-.31-.62-.46-.69-.5-1.35-1.02-1.9-1.72h0Zm2.61,11.79c-.22-.24-.43-.49-.65-.73-.32-.36-.59-.72-.83-1.08l.71-.15c1.17.81,2.28,1.59,2.95,2.92.04.07.11.11.18.12.08,0,.15-.04.19-.11.48-.79.61-1.55.7-2.25.07-.55.11-1.07.12-1.56l5.38-1.14-6.37,11.02c.36-2.59-.12-4.51-1.5-6.03-.3-.33-.6-.67-.89-1h0Zm1.73-7.94l8.47-4.89v5.55l-7.23,1.54c-.23-.67-.54-1.28-.97-1.86-.09-.12-.18-.23-.27-.35h0Zm-.37,22.59l10.29-17.83,13.83,23.96h-24.65c.78-1.7.95-4.06.53-6.13h0Zm19.1-8.39h0l-5.91-10.24,20.49,4.35-2.31,5.89-4.97,12.64-7.3-12.64h0Zm-7.35-13.52v-5.55l15.22,8.79-15.22-3.24Zm-13.99-79.32c0-.82.67-1.49,1.49-1.49s1.49.67,1.49,1.49v8.47l-2.98-1.72v-6.74h0Zm-6.33,60.6c-.26,0-.53,0-.79,0-.78.01-1.59.02-2.38-.07.35-.13.67-.28.99-.44.34-.17.66-.32,1-.44.73-.26,1.51-.3,2.34-.35.15,0,.29-.02.44-.02.08,0,.15-.05.18-.12.03-.07.03-.15-.02-.22-.81-1.18-1.82-2.1-3.07-2.79-1.16-.65-2.56-1.27-4.19-1-.98.17-1.83.65-2.66,1.12-.11.07-.22.13-.33.19l-.19.11c-.19.11-.37.21-.55.3,1.33-1.46,1.93-3.15,1.79-5.03-.02-.27-.07-.61-.32-.76-.24-.15-.55-.07-.77.01-.45.17-.89.33-1.35.49-.99.35-2,.72-2.99,1.14v-52.76c0-.3.25-.56.56-.56.1,0,.19.02.27.07h0l27.07,15.66c.37.2.64.5.8.85.09.21.15.44.15.67l.46,17.07h0l1,37.28-7.62,4.4c0-.63-.08-1.26-.2-1.91-.52-2.66-1.9-4.38-4.2-5.26-.31-.12-.62-.23-.93-.34-.81-.29-1.65-.59-2.42-.98,0,0-.01,0-.02-.01h.66c1.55,0,3.02,0,4.44.76.07.04.15.03.22,0s.1-.12.1-.2c-.04-.65-.22-1.15-.38-1.63l-.02-.07c-1.16-3.39-3.59-5.17-7.03-5.17h0Zm3.55,43.51l-.28.48c-.03-.06-.07-.12-.09-.17-.19-.4-.33-.8-.4-1.23.23.35.48.66.77.93h0Zm-3.23,13.34c.34-.32,1.18-.98,1.57-1.29.25-.2.39-.31.43-.35.78-.7,1.43-1.5,1.93-2.36l8.87,11.4-12.81-7.39h0Zm5.17-7.16h26.75l-13.37,17.18-13.37-17.18h0Zm19.11,14.56l10.92-14.02,6.02,4.24-16.94,9.78Zm18.18-12.47l-5.78-4.08,5.78-14.72v18.8h0Z"/>
        </g>
      </g>
    </g>
  </g>
</svg>